# xmcd
#
# Track frame offsets: 
#        150
#        18101
#        37530
#        60056
#        75170
#        98614
#        118728
#        138017
#        157071
#        189590
#        211145
#        237170
#
# Disc length: 3358 seconds
#
# Revision: 3
# Processed by: cddbd v1.5.2PL0 Copyright (c) Steve Scherf et al.
# Submitted via: ExactAudioCopy v1.1
#
DISCID=7b0d1c0c
DTITLE=Ford, Robben - Handful Of Blues
DYEAR=1995
DGENRE=Blues
TTITLE0=Rugged Road
TTITLE1=Chevrolet
TTITLE2=When I Leave Here
TTITLE3=The Miller's Son
TTITLE4=Don't Let Me Be Misunderstood
TTITLE5=Top Of The Hill
TTITLE6=Running Out On Me
TTITLE7=Tired Of Talkin'
TTITLE8=Good Thing
TTITLE9=Think Twice
TTITLE10=I Just Want To Make Love To You
TTITLE11=Strong Will To Live
EXTD=
EXTT0=
EXTT1=
EXTT2=
EXTT3=
EXTT4=
EXTT5=
EXTT6=
EXTT7=
EXTT8=
EXTT9=
EXTT10=
EXTT11=
PLAYORDER=
